<svg width="130" height="130" viewBox="0 0 130 130" fill="none" xmlns="http://www.w3.org/2000/svg">
<path d="M105.625 130H24.375C10.9119 130 0 119.088 0 105.625V24.375C0 10.9119 10.9119 0 24.375 0H105.625C119.088 0 130 10.9119 130 24.375V105.625C130 119.088 119.088 130 105.625 130Z" fill="#B3E7F8"/>
<path d="M97.24 64.0006C89.9316 51.0574 77.8822 43.3306 65 43.3306C52.1178 43.3306 40.0685 51.0574 32.76 64.0006C32.4106 64.6221 32.4106 65.3778 32.76 65.9993C40.0685 78.9424 52.1178 86.6693 65 86.6693C77.8822 86.6693 89.9316 78.9424 97.24 65.9993C97.5894 65.3778 97.5894 64.6221 97.24 64.0006ZM65 78.5402C57.5331 78.5402 51.4597 72.4668 51.4597 64.9999C51.4597 57.5331 57.5331 51.4596 65 51.4596C72.4669 51.4596 78.5403 57.5331 78.5403 64.9999C78.5403 72.4668 72.4669 78.5402 65 78.5402Z" fill="#6AC0DB"/>
<path d="M59.5 65L64.5 70L72.5 60.5" stroke="white" stroke-width="2.5" stroke-linecap="round" stroke-linejoin="round"/>
</svg>
