<svg width="130" height="130" viewBox="0 0 130 130" fill="none" xmlns="http://www.w3.org/2000/svg">
<path d="M105.625 130H24.375C10.9119 130 0 119.088 0 105.625V24.375C0 10.9119 10.9119 0 24.375 0H105.625C119.088 0 130 10.9119 130 24.375V105.625C130 119.088 119.088 130 105.625 130Z" fill="#ACDFDA"/>
<path d="M86.4335 84.2846H44.5665C43.7014 84.2846 43 83.5832 43 82.7181V57.9053H88V82.7181C88 83.5832 87.2986 84.2846 86.4335 84.2846Z" fill="#7FC5BE"/>
<path d="M63.1872 50.9225V46.282C63.1872 45.417 62.4858 44.7156 61.6207 44.7156H44.5665C43.7014 44.7156 43 45.417 43 46.282V50.1466V57.9052H88V52.4889C88 51.6239 87.2986 50.9225 86.4335 50.9225H63.1872Z" fill="#63B1AA"/>
</svg>
