<svg width="130" height="130" viewBox="0 0 130 130" fill="none" xmlns="http://www.w3.org/2000/svg">
<path d="M105.625 130H24.375C10.912 130 0 119.088 0 105.625V24.375C0 10.912 10.912 0 24.375 0H105.625C119.088 0 130 10.912 130 24.375V105.625C130 119.088 119.088 130 105.625 130Z" fill="#FFE6E2"/>
<path d="M65 32.7354C47.0808 32.7354 32.5 47.4218 32.5 65.4709C32.5 83.52 47.0808 98.2064 65 98.2064C82.9192 98.2064 97.5 83.52 97.5 65.4709C97.5 47.4218 82.9192 32.7354 65 32.7354ZM76.9683 73.6707C78.0246 74.7347 78.0246 76.462 76.9683 77.5299C76.4397 78.0614 75.7454 78.3281 75.0551 78.3281C74.3638 78.3281 73.6695 78.0614 73.1409 77.5299L65 69.33L56.8591 77.5299C56.3305 78.0614 55.6362 78.3281 54.9449 78.3281C54.2506 78.3281 53.5603 78.0614 53.0317 77.5299C51.9754 76.466 51.9754 74.7387 53.0317 73.6707L61.1686 65.4709L53.0277 57.271C51.9714 56.2071 51.9714 54.4798 53.0277 53.4118C54.084 52.3439 55.7989 52.3479 56.8591 53.4118L65 61.6117L73.1409 53.4118C74.1972 52.3479 75.912 52.3479 76.9723 53.4118C78.0325 54.4758 78.0286 56.2031 76.9723 57.271L68.8314 65.4709L76.9683 73.6707Z" fill="#E97F6D"/>
</svg>
