<svg width="130" height="130" viewBox="0 0 130 130" fill="none" xmlns="http://www.w3.org/2000/svg">
<path d="M105.625 130H24.375C10.9119 130 0 119.088 0 105.625V24.375C0 10.9119 10.9119 0 24.375 0H105.625C119.088 0 130 10.9119 130 24.375V105.625C130 119.088 119.088 130 105.625 130Z" fill="#FFE6A0"/>
<path d="M32 30H26V36" stroke="white" stroke-width="3" stroke-linecap="round" stroke-linejoin="round"/>
<path d="M99 100.5L105 100.5L105 94.5" stroke="white" stroke-width="3" stroke-linecap="round" stroke-linejoin="round"/>
<path d="M105 36L105 30L99 30" stroke="white" stroke-width="3" stroke-linecap="round" stroke-linejoin="round"/>
<path d="M26 94.5L26 100.5L32 100.5" stroke="white" stroke-width="3" stroke-linecap="round" stroke-linejoin="round"/>
<path d="M93.864 85.5688H39.4985C38.0979 85.5688 36.9625 84.4335 36.9625 83.0328V42.536C36.9625 41.1355 38.0979 40 39.4985 40H93.864C95.2645 40 96.4 41.1353 96.4 42.536V83.0328C96.4 84.4333 95.2645 85.5688 93.864 85.5688Z" fill="#FBDA7E"/>
<path d="M89.9015 89.5313H35.536C34.1353 89.5313 33 88.396 33 86.9953V46.4987C33 45.0981 34.1353 43.9626 35.536 43.9626H89.9015C91.3021 43.9626 92.4375 45.098 92.4375 46.4987V86.9954C92.4374 88.396 91.3021 89.5313 89.9015 89.5313Z" fill="#FFF7DF"/>
<path d="M33 73.9367L47.0342 55.9412C47.43 55.4337 48.1973 55.4325 48.5946 55.9388L62.7187 73.9367L75.1136 62.1367C75.5167 61.7531 76.1565 61.7765 76.5304 62.1887L85.3685 71.9324L92.4374 63.6651V86.5593C92.4374 88.2006 91.1068 89.5312 89.4656 89.5312H35.9718C34.3306 89.5313 33 88.2007 33 86.5594V73.9367Z" fill="#FCD462"/>
<path d="M64.3703 60.3243C67.6383 60.3243 70.2875 57.6751 70.2875 54.407C70.2875 51.139 67.6383 48.4897 64.3703 48.4897C61.1022 48.4897 58.453 51.139 58.453 54.407C58.453 57.6751 61.1022 60.3243 64.3703 60.3243Z" fill="#FCD462"/>
<path d="M19 65H111" stroke="white" stroke-width="3" stroke-linecap="round" stroke-linejoin="round"/>
</svg>
